<svg width="24" height="24" viewBox="0 0 24 24" fill="none" xmlns="http://www.w3.org/2000/svg">
<path opacity="0.4" d="M24 12C24 18.6274 18.6274 24 12 24C5.37258 24 0 18.6274 0 12C0 5.37258 5.37258 0 12 0C18.6274 0 24 5.37258 24 12Z" fill="white"/>
<circle cx="12" cy="12" r="11" stroke="#D1D1D1" stroke-width="2"/>
<path d="M6.76291 16.101C6.981 16.3191 7.26197 16.4358 7.54748 16.4516C7.54811 16.4631 7.54919 16.4746 7.55015 16.4861C7.57312 16.7596 7.6888 17.0269 7.89811 17.2362C8.36834 17.7064 9.13071 17.7064 9.60093 17.2362C10.0712 16.766 10.0712 16.0036 9.49819 15.4306L10.642 14.2892C10.4626 14.1828 10.2946 14.0544 10.1419 13.9052C9.973 13.7402 9.82928 13.5567 9.71234 13.3593L8.56842 14.5009C7.99546 13.928 7.23309 13.928 6.76286 14.3982C6.29268 14.8684 6.29268 15.6308 6.76291 16.101Z" fill="#D1D1D1"/>
<path d="M13.3743 13.4183C13.3825 13.4127 13.7473 13.0001 14.3811 12.9854C15.2112 12.9661 15.9964 12.6373 16.5921 12.0595C17.8988 10.7923 17.9244 8.68881 16.6452 7.39153C15.3645 6.09264 13.2712 6.08311 11.9795 7.37479C11.3801 7.97415 11.0386 8.77078 11.0178 9.61796C11.0018 10.2694 10.5926 10.6174 10.5848 10.6289C9.81797 11.3957 9.8049 12.656 10.6019 13.4345C11.3737 14.1884 12.6084 14.184 13.3743 13.4183Z" fill="#D1D1D1"/>
</svg>
